<?xml version="1.0" encoding="UTF-8" standalone="no"?>
<svg
   xmlns:dc="http://purl.org/dc/elements/1.1/"
   xmlns:cc="http://creativecommons.org/ns#"
   xmlns:rdf="http://www.w3.org/1999/02/22-rdf-syntax-ns#"
   xmlns:svg="http://www.w3.org/2000/svg"
   xmlns="http://www.w3.org/2000/svg"
   viewBox="0 0 233.41333 82.232002"
   height="82.232002"
   width="233.41333"
   xml:space="preserve"
   id="svg64"
   version="1.1"><metadata
     id="metadata70"><rdf:RDF><cc:Work
         rdf:about=""><dc:format>image/svg+xml</dc:format><dc:type
           rdf:resource="http://purl.org/dc/dcmitype/StillImage" /><dc:title></dc:title></cc:Work></rdf:RDF></metadata><defs
     id="defs68" /><g
     transform="matrix(1.3333333,0,0,-1.3333333,0,82.232)"
     id="g72"><g
       transform="translate(87.53,30.837)"
       id="g74"><g
         id="g76"><g
           id="g78"><g
             id="g80"><g
               transform="translate(-30.837,-3.21)"
               id="g82"><g
                 id="g84"><g
                   transform="translate(-56.693,-27.627)"
                   id="g86"><text
                     id="text90"
                     style="font-variant:normal;font-weight:normal;font-size:9.96259975px;font-family:CMR10;-inkscape-font-specification:CMR10;writing-mode:lr-tb;fill:#000000;fill-opacity:1;fill-rule:nonzero;stroke:none"
                     transform="matrix(1,0,0,-1,56.693,27.627)"><tspan
                       id="tspan88"
                       y="0"
                       x="0">1</tspan></text>
<g
                     transform="translate(56.693,27.627)"
                     id="g92" /></g></g><g
                 transform="translate(30.837,3.21)"
                 id="g94" /></g></g><g
             id="g96"><g
               transform="translate(-2.491,-3.21)"
               id="g98"><g
                 id="g100"><g
                   transform="translate(-85.039,-27.627)"
                   id="g102"><text
                     id="text106"
                     style="font-variant:normal;font-weight:normal;font-size:9.96259975px;font-family:CMR10;-inkscape-font-specification:CMR10;writing-mode:lr-tb;fill:#000000;fill-opacity:1;fill-rule:nonzero;stroke:none"
                     transform="matrix(1,0,0,-1,85.039,27.627)"><tspan
                       id="tspan104"
                       y="0"
                       x="0">2</tspan></text>
<g
                     transform="translate(85.039,27.627)"
                     id="g108" /></g></g><g
                 transform="translate(2.491,3.21)"
                 id="g110" /></g></g><g
             id="g112"><g
               transform="translate(25.856,-3.21)"
               id="g114"><g
                 id="g116"><g
                   transform="translate(-113.386,-27.627)"
                   id="g118"><text
                     id="text122"
                     style="font-variant:normal;font-weight:normal;font-size:9.96259975px;font-family:CMR10;-inkscape-font-specification:CMR10;writing-mode:lr-tb;fill:#000000;fill-opacity:1;fill-rule:nonzero;stroke:none"
                     transform="matrix(1,0,0,-1,113.386,27.627)"><tspan
                       id="tspan120"
                       y="0"
                       x="0">3</tspan></text>
<g
                     transform="translate(113.386,27.627)"
                     id="g124" /></g></g><g
                 transform="translate(-25.856,3.21)"
                 id="g126" /></g></g><g
             id="g128"><path
               id="path130"
               style="fill:none;stroke:#00ff00;stroke-width:4.98137999;stroke-linecap:butt;stroke-linejoin:miter;stroke-miterlimit:10;stroke-dasharray:none;stroke-opacity:1"
               d="M 85.04042,0 C 85.04042,15.6557 46.96713,28.3468 0,28.3468 -46.96713,28.3468 -85.04042,15.6557 -85.04042,0 c 0,-15.6557 38.07329,-28.3468 85.04042,-28.3468 46.96713,0 85.04042,12.6911 85.04042,28.3468 z" /></g><g
             id="g132"><path
               id="path134"
               style="fill:none;stroke:#00ff00;stroke-width:4.98137999;stroke-linecap:butt;stroke-linejoin:miter;stroke-miterlimit:10;stroke-dasharray:none;stroke-opacity:1"
               d="m 70.867,0 c 0,7.82784 -6.34555,14.17339 -14.17338,14.17339 -7.82785,0 -14.1734,-6.34555 -14.1734,-14.17339 0,-7.82784 6.34555,-14.17339 14.1734,-14.17339 7.82783,0 14.17338,6.34555 14.17338,14.17339 z" /></g></g></g></g></g></svg>