<?xml version="1.0" encoding="UTF-8" standalone="no"?>
<svg
   xmlns:dc="http://purl.org/dc/elements/1.1/"
   xmlns:cc="http://creativecommons.org/ns#"
   xmlns:rdf="http://www.w3.org/1999/02/22-rdf-syntax-ns#"
   xmlns:svg="http://www.w3.org/2000/svg"
   xmlns="http://www.w3.org/2000/svg"
   viewBox="0 0 195.61867 82.232002"
   height="82.232002"
   width="195.61867"
   xml:space="preserve"
   id="svg115"
   version="1.1"><metadata
     id="metadata121"><rdf:RDF><cc:Work
         rdf:about=""><dc:format>image/svg+xml</dc:format><dc:type
           rdf:resource="http://purl.org/dc/dcmitype/StillImage" /><dc:title></dc:title></cc:Work></rdf:RDF></metadata><defs
     id="defs119" /><g
     transform="matrix(1.3333333,0,0,-1.3333333,0,82.232)"
     id="g123"><g
       transform="translate(73.357,30.837)"
       id="g125"><g
         id="g127"><g
           id="g129"><g
             id="g131"><g
               transform="translate(-30.837,-3.21)"
               id="g133"><g
                 id="g135"><g
                   transform="translate(-42.52,-27.627)"
                   id="g137"><text
                     id="text141"
                     style="font-variant:normal;font-weight:normal;font-size:9.96259975px;font-family:CMR10;-inkscape-font-specification:CMR10;writing-mode:lr-tb;fill:#000000;fill-opacity:1;fill-rule:nonzero;stroke:none"
                     transform="matrix(1,0,0,-1,42.52,27.627)"><tspan
                       id="tspan139"
                       y="0"
                       x="0">1</tspan></text>
<g
                     transform="translate(42.52,27.627)"
                     id="g143" /></g></g><g
                 transform="translate(30.837,3.21)"
                 id="g145" /></g></g><g
             id="g147"><g
               transform="translate(-2.491,-3.21)"
               id="g149"><g
                 id="g151"><g
                   transform="translate(-70.866,-27.627)"
                   id="g153"><text
                     id="text157"
                     style="font-variant:normal;font-weight:normal;font-size:9.96259975px;font-family:CMR10;-inkscape-font-specification:CMR10;writing-mode:lr-tb;fill:#000000;fill-opacity:1;fill-rule:nonzero;stroke:none"
                     transform="matrix(1,0,0,-1,70.866,27.627)"><tspan
                       id="tspan155"
                       y="0"
                       x="0">2</tspan></text>
<g
                     transform="translate(70.866,27.627)"
                     id="g159" /></g></g><g
                 transform="translate(2.491,3.21)"
                 id="g161" /></g></g><g
             id="g163"><g
               transform="translate(25.856,-3.21)"
               id="g165"><g
                 id="g167"><g
                   transform="translate(-99.213,-27.627)"
                   id="g169"><text
                     id="text173"
                     style="font-variant:normal;font-weight:normal;font-size:9.96259975px;font-family:CMR10;-inkscape-font-specification:CMR10;writing-mode:lr-tb;fill:#000000;fill-opacity:1;fill-rule:nonzero;stroke:none"
                     transform="matrix(1,0,0,-1,99.213,27.627)"><tspan
                       id="tspan171"
                       y="0"
                       x="0">3</tspan></text>
<g
                     transform="translate(99.213,27.627)"
                     id="g175" /></g></g><g
                 transform="translate(-25.856,3.21)"
                 id="g177" /></g></g><g
             id="g179"><path
               id="path181"
               style="fill:none;stroke:#00ff00;stroke-width:4.98137999;stroke-linecap:butt;stroke-linejoin:miter;stroke-miterlimit:10;stroke-dasharray:none;stroke-opacity:1"
               d="M 70.867,0 C 70.867,15.6557 39.13927,28.3468 0,28.3468 -39.13927,28.3468 -70.867,15.6557 -70.867,0 c 0,-15.6557 31.72773,-28.3468 70.867,-28.3468 39.13927,0 70.867,12.6911 70.867,28.3468 z" /></g><g
             id="g183"><path
               id="path185"
               style="fill:none;stroke:#0000ff;stroke-width:0.3985;stroke-linecap:butt;stroke-linejoin:miter;stroke-miterlimit:10;stroke-dasharray:none;stroke-opacity:1"
               d="m -21.26012,0 c 0,3.91391 -3.17277,7.08669 -7.08668,7.08669 -3.91391,0 -7.08669,-3.17278 -7.08669,-7.08669 0,-3.91391 3.17278,-7.08669 7.08669,-7.08669 3.91391,0 7.08668,3.17278 7.08668,7.08669 z" /></g><g
             id="g187"><path
               id="path189"
               style="fill:none;stroke:#0000ff;stroke-width:0.3985;stroke-linecap:butt;stroke-linejoin:miter;stroke-miterlimit:10;stroke-dasharray:none;stroke-opacity:1"
               d="M 7.08669,0 C 7.08669,3.91391 3.91391,7.08669 0,7.08669 -3.91391,7.08669 -7.08669,3.91391 -7.08669,0 c 0,-3.91391 3.17278,-7.08669 7.08669,-7.08669 3.91391,0 7.08669,3.17278 7.08669,7.08669 z" /></g><g
             id="g191"><path
               id="path193"
               style="fill:none;stroke:#0000ff;stroke-width:0.3985;stroke-linecap:butt;stroke-linejoin:miter;stroke-miterlimit:10;stroke-dasharray:none;stroke-opacity:1"
               d="m 35.43349,0 c 0,3.91391 -3.17278,7.08669 -7.08669,7.08669 -3.91391,0 -7.08668,-3.17278 -7.08668,-7.08669 0,-3.91391 3.17277,-7.08669 7.08668,-7.08669 3.91391,0 7.08669,3.17278 7.08669,7.08669 z" /></g><g
             id="g195"><path
               id="path197"
               style="fill:none;stroke:#00adef;stroke-width:1.99255002;stroke-linecap:butt;stroke-linejoin:miter;stroke-miterlimit:10;stroke-dasharray:none;stroke-opacity:1"
               d="m 11.33855,0 c 0,7.82784 -11.42191,14.17339 -25.51194,14.17339 -14.09002,0 -25.51194,-6.34555 -25.51194,-14.17339 0,-7.82784 11.42192,-14.17339 25.51194,-14.17339 14.09003,0 25.51194,6.34555 25.51194,14.17339 z" /></g><g
             id="g199"><path
               id="path201"
               style="fill:none;stroke:#ff8000;stroke-width:1.99255002;stroke-linecap:butt;stroke-linejoin:miter;stroke-miterlimit:10;stroke-dasharray:none;stroke-opacity:1"
               d="m 39.68533,0 c 0,7.82784 -11.42192,14.17339 -25.51194,14.17339 -14.09003,0 -25.51194,-6.34555 -25.51194,-14.17339 0,-7.82784 11.42191,-14.17339 25.51194,-14.17339 14.09002,0 25.51194,6.34555 25.51194,14.17339 z" /></g><g
             id="g203"><path
               id="path205"
               style="fill:none;stroke:#ec008c;stroke-width:1.99255002;stroke-linecap:butt;stroke-linejoin:miter;stroke-miterlimit:10;stroke-dasharray:none;stroke-opacity:1"
               d="M -42.433233,1.304511 C -36.441908,18.261561 34.465645,22.15998 42.5202,0" /></g><g
             id="g207"><path
               id="path209"
               style="fill:none;stroke:#ec008c;stroke-width:1.99255002;stroke-linecap:butt;stroke-linejoin:miter;stroke-miterlimit:10;stroke-dasharray:none;stroke-opacity:1"
               d="M -42.433233,1.304511 C -38.782888,-11.425517 -28.3468,-11.33855 -14.17339,0" /></g><g
             id="g211"><path
               id="path213"
               style="fill:none;stroke:#ec008c;stroke-width:1.99255002;stroke-linecap:butt;stroke-linejoin:miter;stroke-miterlimit:10;stroke-dasharray:none;stroke-opacity:1"
               d="M -14.17339,0 C 0,11.33855 0,11.33855 14.17339,0" /></g><g
             id="g215"><path
               id="path217"
               style="fill:none;stroke:#ec008c;stroke-width:1.99255002;stroke-linecap:butt;stroke-linejoin:miter;stroke-miterlimit:10;stroke-dasharray:none;stroke-opacity:1"
               d="M 14.17339,0 C 28.3468,-11.33855 31.074426,-13.296813 42.5202,0" /></g><g
             id="g219"><path
               id="path221"
               style="fill:none;stroke:#00ff00;stroke-width:4.98137999;stroke-linecap:butt;stroke-linejoin:miter;stroke-miterlimit:10;stroke-dasharray:none;stroke-opacity:1"
               d="m 63.7803,0 c 0,3.91391 -3.17277,7.08669 -7.08668,7.08669 -3.91392,0 -7.0867,-3.17278 -7.0867,-7.08669 0,-3.91391 3.17278,-7.08669 7.0867,-7.08669 3.91391,0 7.08668,3.17278 7.08668,7.08669 z" /></g></g></g></g></g></svg>