<?xml version="1.0" encoding="UTF-8" standalone="no"?>
<svg
   xmlns:dc="http://purl.org/dc/elements/1.1/"
   xmlns:cc="http://creativecommons.org/ns#"
   xmlns:rdf="http://www.w3.org/1999/02/22-rdf-syntax-ns#"
   xmlns:svg="http://www.w3.org/2000/svg"
   xmlns="http://www.w3.org/2000/svg"
   viewBox="0 0 153.83733 40.452"
   height="40.452"
   width="153.83733"
   xml:space="preserve"
   id="svg4228"
   version="1.1"><metadata
     id="metadata4234"><rdf:RDF><cc:Work
         rdf:about=""><dc:format>image/svg+xml</dc:format><dc:type
           rdf:resource="http://purl.org/dc/dcmitype/StillImage" /><dc:title></dc:title></cc:Work></rdf:RDF></metadata><defs
     id="defs4232" /><g
     transform="matrix(1.3333333,0,0,-1.3333333,0,40.452)"
     id="g4236"><g
       transform="translate(57.689,15.169)"
       id="g4238"><g
         id="g4240"><g
           id="g4242"><g
             id="g4244"><path
               id="path4246"
               style="fill:none;stroke:#00ff00;stroke-width:1.99255002;stroke-linecap:butt;stroke-linejoin:miter;stroke-miterlimit:10;stroke-dasharray:none;stroke-opacity:1"
               d="m 0,0 c 0,7.82784 -12.69109,14.17339 -28.3468,14.17339 -15.65572,0 -28.34682,-6.34555 -28.34682,-14.17339 0,-7.82784 12.6911,-14.17339 28.34682,-14.17339 C -12.69109,-14.17339 0,-7.82784 0,0 Z" /></g><g
             id="g4248"><path
               id="path4250"
               style="fill:none;stroke:#00ff00;stroke-width:1.99255002;stroke-linecap:butt;stroke-linejoin:miter;stroke-miterlimit:10;stroke-dasharray:none;stroke-opacity:1"
               d="m 56.69362,0 c 0,7.82784 -12.6911,14.17339 -28.34682,14.17339 C 12.69109,14.17339 0,7.82784 0,0 c 0,-7.82784 12.69109,-14.17339 28.3468,-14.17339 15.65572,0 28.34682,6.34555 28.34682,14.17339 z" /></g></g></g></g></g></svg>