<?xml version="1.0" encoding="UTF-8" standalone="no"?>
<svg
   xmlns:dc="http://purl.org/dc/elements/1.1/"
   xmlns:cc="http://creativecommons.org/ns#"
   xmlns:rdf="http://www.w3.org/1999/02/22-rdf-syntax-ns#"
   xmlns:svg="http://www.w3.org/2000/svg"
   xmlns="http://www.w3.org/2000/svg"
   viewBox="0 0 195.61867 82.232002"
   height="82.232002"
   width="195.61867"
   xml:space="preserve"
   id="svg2"
   version="1.1"><metadata
     id="metadata8"><rdf:RDF><cc:Work
         rdf:about=""><dc:format>image/svg+xml</dc:format><dc:type
           rdf:resource="http://purl.org/dc/dcmitype/StillImage" /></cc:Work></rdf:RDF></metadata><defs
     id="defs6" /><g
     transform="matrix(1.3333333,0,0,-1.3333333,0,82.232)"
     id="g10"><g
       transform="translate(73.357,30.837)"
       id="g12"><g
         id="g14"><g
           id="g16"><g
             id="g18"><g
               transform="translate(-30.837,-3.21)"
               id="g20"><g
                 id="g22"><g
                   transform="translate(-42.52,-27.627)"
                   id="g24"><text
                     id="text28"
                     style="font-variant:normal;font-weight:normal;font-size:9.96259975px;font-family:CMR10;-inkscape-font-specification:CMR10;writing-mode:lr-tb;fill:#000000;fill-opacity:1;fill-rule:nonzero;stroke:none"
                     transform="matrix(1,0,0,-1,42.52,27.627)"><tspan
                       id="tspan26"
                       y="0"
                       x="0">1</tspan></text>
<g
                     transform="translate(42.52,27.627)"
                     id="g30" /></g></g><g
                 transform="translate(30.837,3.21)"
                 id="g32" /></g></g><g
             id="g34"><g
               transform="translate(-2.491,-3.21)"
               id="g36"><g
                 id="g38"><g
                   transform="translate(-70.866,-27.627)"
                   id="g40"><text
                     id="text44"
                     style="font-variant:normal;font-weight:normal;font-size:9.96259975px;font-family:CMR10;-inkscape-font-specification:CMR10;writing-mode:lr-tb;fill:#000000;fill-opacity:1;fill-rule:nonzero;stroke:none"
                     transform="matrix(1,0,0,-1,70.866,27.627)"><tspan
                       id="tspan42"
                       y="0"
                       x="0">2</tspan></text>
<g
                     transform="translate(70.866,27.627)"
                     id="g46" /></g></g><g
                 transform="translate(2.491,3.21)"
                 id="g48" /></g></g><g
             id="g50"><g
               transform="translate(25.856,-3.21)"
               id="g52"><g
                 id="g54"><g
                   transform="translate(-99.213,-27.627)"
                   id="g56"><text
                     id="text60"
                     style="font-variant:normal;font-weight:normal;font-size:9.96259975px;font-family:CMR10;-inkscape-font-specification:CMR10;writing-mode:lr-tb;fill:#000000;fill-opacity:1;fill-rule:nonzero;stroke:none"
                     transform="matrix(1,0,0,-1,99.213,27.627)"><tspan
                       id="tspan58"
                       y="0"
                       x="0">3</tspan></text>
<g
                     transform="translate(99.213,27.627)"
                     id="g62" /></g></g><g
                 transform="translate(-25.856,3.21)"
                 id="g64" /></g></g><g
             id="g66"><path
               id="path68"
               style="fill:none;stroke:#00ff00;stroke-width:4.98137999;stroke-linecap:butt;stroke-linejoin:miter;stroke-miterlimit:10;stroke-dasharray:none;stroke-opacity:1"
               d="M 70.867,0 C 70.867,15.6557 39.13927,28.3468 0,28.3468 -39.13927,28.3468 -70.867,15.6557 -70.867,0 c 0,-15.6557 31.72773,-28.3468 70.867,-28.3468 39.13927,0 70.867,12.6911 70.867,28.3468 z" /></g><g
             id="g70"><path
               id="path72"
               style="fill:none;stroke:#0000ff;stroke-width:0.3985;stroke-linecap:butt;stroke-linejoin:miter;stroke-miterlimit:10;stroke-dasharray:none;stroke-opacity:1"
               d="m -21.26012,0 c 0,3.91391 -3.17277,7.08669 -7.08668,7.08669 -3.91391,0 -7.08669,-3.17278 -7.08669,-7.08669 0,-3.91391 3.17278,-7.08669 7.08669,-7.08669 3.91391,0 7.08668,3.17278 7.08668,7.08669 z" /></g><g
             id="g74"><path
               id="path76"
               style="fill:none;stroke:#0000ff;stroke-width:0.3985;stroke-linecap:butt;stroke-linejoin:miter;stroke-miterlimit:10;stroke-dasharray:none;stroke-opacity:1"
               d="M 7.08669,0 C 7.08669,3.91391 3.91391,7.08669 0,7.08669 -3.91391,7.08669 -7.08669,3.91391 -7.08669,0 c 0,-3.91391 3.17278,-7.08669 7.08669,-7.08669 3.91391,0 7.08669,3.17278 7.08669,7.08669 z" /></g><g
             id="g78"><path
               id="path80"
               style="fill:none;stroke:#0000ff;stroke-width:0.3985;stroke-linecap:butt;stroke-linejoin:miter;stroke-miterlimit:10;stroke-dasharray:none;stroke-opacity:1"
               d="m 35.43349,0 c 0,3.91391 -3.17278,7.08669 -7.08669,7.08669 -3.91391,0 -7.08668,-3.17278 -7.08668,-7.08669 0,-3.91391 3.17277,-7.08669 7.08668,-7.08669 3.91391,0 7.08669,3.17278 7.08669,7.08669 z" /></g><g
             id="g82"><path
               id="path84"
               style="fill:none;stroke:#00adef;stroke-width:1.99255002;stroke-linecap:butt;stroke-linejoin:miter;stroke-miterlimit:10;stroke-dasharray:none;stroke-opacity:1"
               d="m 11.33855,0 c 0,7.82784 -11.42191,14.17339 -25.51194,14.17339 -14.09002,0 -25.51194,-6.34555 -25.51194,-14.17339 0,-7.82784 11.42192,-14.17339 25.51194,-14.17339 14.09003,0 25.51194,6.34555 25.51194,14.17339 z" /></g><g
             id="g86"><path
               id="path88"
               style="fill:none;stroke:#ff8000;stroke-width:1.99255002;stroke-linecap:butt;stroke-linejoin:miter;stroke-miterlimit:10;stroke-dasharray:none;stroke-opacity:1"
               d="m 39.68533,0 c 0,7.82784 -11.42192,14.17339 -25.51194,14.17339 -14.09003,0 -25.51194,-6.34555 -25.51194,-14.17339 0,-7.82784 11.42191,-14.17339 25.51194,-14.17339 14.09002,0 25.51194,6.34555 25.51194,14.17339 z" /></g><g
             id="g90"><path
               id="path92"
               style="fill:none;stroke:#ec008c;stroke-width:1.99255002;stroke-linecap:butt;stroke-linejoin:miter;stroke-miterlimit:10;stroke-dasharray:none;stroke-opacity:1"
               d="M -42.5202,0 C 0,21.2601 0,21.2601 42.5202,0" /></g><g
             id="g94"><path
               id="path96"
               style="fill:none;stroke:#ec008c;stroke-width:1.99255002;stroke-linecap:butt;stroke-linejoin:miter;stroke-miterlimit:10;stroke-dasharray:none;stroke-opacity:1"
               d="m -42.5202,0 c 14.1734,-11.33855 14.1734,-11.33855 28.34681,0" /></g><g
             id="g98"><path
               id="path100"
               style="fill:none;stroke:#ec008c;stroke-width:1.99255002;stroke-linecap:butt;stroke-linejoin:miter;stroke-miterlimit:10;stroke-dasharray:none;stroke-opacity:1"
               d="M -14.17339,0 C 0,11.33855 0,11.33855 14.17339,0" /></g><g
             id="g102"><path
               id="path104"
               style="fill:none;stroke:#ec008c;stroke-width:1.99255002;stroke-linecap:butt;stroke-linejoin:miter;stroke-miterlimit:10;stroke-dasharray:none;stroke-opacity:1"
               d="M 14.17339,0 C 28.3468,-11.33855 28.3468,-11.33855 42.5202,0" /></g><g
             id="g106"><path
               id="path108"
               style="fill:none;stroke:#00ff00;stroke-width:4.98137999;stroke-linecap:butt;stroke-linejoin:miter;stroke-miterlimit:10;stroke-dasharray:none;stroke-opacity:1"
               d="m 63.7803,0 c 0,3.91391 -3.17277,7.08669 -7.08668,7.08669 -3.91392,0 -7.0867,-3.17278 -7.0867,-7.08669 0,-3.91391 3.17278,-7.08669 7.0867,-7.08669 3.91391,0 7.08668,3.17278 7.08668,7.08669 z" /></g></g></g></g></g></svg>